<svg width="16" height="16" viewBox="0 0 16 16" fill="none" xmlns="http://www.w3.org/2000/svg">
<path d="M8.41919 2.66016C11.5349 2.66018 14.0608 5.18603 14.0608 8.30176C14.0606 11.4173 11.5348 13.9433 8.41919 13.9434C5.30358 13.9434 2.77781 11.4173 2.77759 8.30176C2.77759 5.18602 5.30345 2.66016 8.41919 2.66016ZM7.47876 7.6748C7.13274 7.67488 6.85199 7.95577 6.85181 8.30176C6.85205 8.64769 7.13278 8.92766 7.47876 8.92773H7.79224V10.8086C7.79224 11.1547 8.07306 11.4355 8.41919 11.4355H9.6731C10.0191 11.4353 10.2991 11.1547 10.2991 10.8086C10.2989 10.4627 10.019 10.1819 9.6731 10.1816H9.04614V8.30176C9.04596 7.95578 8.76519 7.6749 8.41919 7.6748H7.47876ZM8.41919 5.16699C8.07317 5.16707 7.79242 5.44796 7.79224 5.79395C7.79224 6.14009 8.07306 6.42082 8.41919 6.4209H8.42505C8.77124 6.4209 9.052 6.14014 9.052 5.79395C9.05182 5.44791 8.77113 5.16699 8.42505 5.16699H8.41919Z" fill="#FF0000"/>
</svg>
