<svg width="320" height="55" viewBox="0 0 320 55" fill="none" xmlns="http://www.w3.org/2000/svg">
<rect width="320" height="55" rx="27.5" fill="url(#paint0_linear_415_347)"/>
<path d="M153.013 31.6055V32.6992H141.802V31.6055H146.737V29.459H143.169V25.5625H150.36V23.8398H143.142V22.7734H151.646V26.6016H144.454V28.3926H151.933V29.459H148.022V31.6055H153.013ZM163.608 23.1562V24.4688C163.608 26.0547 163.608 27.7773 163.157 30.3887L161.831 30.2656C162.323 27.8184 162.323 26.0137 162.323 24.4688V24.2227H155.104V23.1562H163.608ZM165.071 31.3457V32.4258H153.901V31.3457H165.071ZM176.159 21.9258V30.8262H174.86V21.9258H176.159ZM176.528 32.8496V33.9023H168.147V29.9238H169.46V32.8496H176.528ZM169.515 22.7461C171.36 22.7461 172.769 24.0039 172.769 25.7812C172.769 27.5859 171.36 28.8301 169.515 28.8301C167.669 28.8301 166.247 27.5859 166.247 25.7812C166.247 24.0039 167.669 22.7461 169.515 22.7461ZM169.515 23.8809C168.366 23.8809 167.519 24.6602 167.519 25.7812C167.519 26.9297 168.366 27.6953 169.515 27.6953C170.636 27.6953 171.497 26.9297 171.497 25.7812C171.497 24.6602 170.636 23.8809 169.515 23.8809Z" fill="white"/>
<defs>
<linearGradient id="paint0_linear_415_347" x1="-72.5" y1="8.88234e-07" x2="350" y2="49" gradientUnits="userSpaceOnUse">
<stop stop-color="#FD3A29"/>
<stop offset="1" stop-color="#FF6589"/>
</linearGradient>
</defs>
</svg>
