<svg width="170" height="54" viewBox="0 0 170 54" fill="none" xmlns="http://www.w3.org/2000/svg">
<path d="M8.59534 4.17449V5.00777H6.05763V6.96787H9.4665V7.82956H1.64504V6.96787H5.01603V5.00777H2.59195V0.91713H8.52906V1.75988H3.64301V4.17449H8.59534ZM17.8466 6.97734V7.84849H10.0252V6.97734H13.3962V5.58539H10.9531V2.78254H15.8771V1.722H10.9342V0.869785H16.9187V3.61582H12.0042V4.7237H17.1175V5.58539H14.4378V6.97734H17.8466ZM23.4997 0.661465C24.7969 0.651996 25.7438 1.39058 25.7438 2.46059C25.7438 3.51166 24.7969 4.25971 23.4997 4.25025C22.2119 4.25971 21.2744 3.51166 21.2744 2.46059C21.2744 1.39058 22.2119 0.651996 23.4997 0.661465ZM23.4997 1.51368C22.799 1.50421 22.2876 1.87351 22.2971 2.46059C22.2876 3.0382 22.799 3.38856 23.4997 3.38856C24.2288 3.38856 24.7401 3.0382 24.7401 2.46059C24.7401 1.87351 24.2288 1.50421 23.4997 1.51368ZM27.8649 0.292171V8.83328H26.8233V0.292171H27.8649ZM20.7158 4.83733C22.2592 4.83733 24.4182 4.80892 26.2646 4.53432L26.3404 5.31078C25.6018 5.45282 24.8348 5.54277 24.0867 5.59485V8.57761H23.0262V5.66114C22.2355 5.69428 21.4922 5.69901 20.8483 5.70848L20.7158 4.83733ZM33.4422 0.415269V1.08757H37.1351V0.415269H38.1767V3.26546H32.4006V0.415269H33.4422ZM33.4422 2.47953H37.1351V1.85457H33.4422V2.47953ZM39.1899 3.79573V4.65742H35.8V5.29184H38.2146V7.36557H33.3475V7.96212H38.4513V8.767H32.3154V6.62698H37.1825V6.06831H32.3059V5.29184H34.7489V4.65742H31.3874V3.79573H39.1899ZM46.9356 0.282702V6.60805H45.8846V4.37334H44.6725V3.50219H45.8846V2.68785H44.6725V1.83563H45.8846V0.282702H46.9356ZM44.5494 0.926599V1.76935H43.7919V4.49644C44.1138 4.4775 44.4263 4.45383 44.7293 4.42069L44.7767 5.18768C43.1575 5.45282 41.2542 5.48123 39.8906 5.48123L39.777 4.61007L40.7429 4.6006V1.76935H39.9948V0.926599H44.5494ZM47.1534 7.82009V8.6723H41.311V6.11565H42.3715V7.82009H47.1534ZM41.7655 4.59113L42.7787 4.55326V1.76935H41.7655V4.59113ZM49.3218 7.4792L48.6685 9.80859H48.2613L48.801 7.4792H49.3218ZM55.6472 3.15183C55.6472 4.6006 56.8971 6.03043 58.005 6.52282L57.7304 6.88265C56.7977 6.42813 55.8082 5.40547 55.4294 4.18396C55.0506 5.45282 54.0706 6.59384 53.1663 7.0815L52.8822 6.72167C53.9522 6.19141 55.2021 4.6006 55.2021 3.15183V1.69359H53.1189V1.29589H57.7777V1.69359H55.6472V3.15183ZM59.6147 0.415269V8.71018H59.1602V0.415269H59.6147ZM67.7581 0.898192V1.48528C67.7581 2.12444 67.7581 2.91984 67.5119 4.00405H68.8187V4.39228H61.2245V4.00405H67.0669C67.3131 2.91511 67.3131 2.12917 67.3131 1.48528V1.29589H62.2093V0.898192H67.7581ZM67.8339 5.69901V8.57761H62.1808V5.69901H67.8339ZM62.6259 6.07778V8.18938H67.3888V6.07778H62.6259ZM75.6175 5.68955C77.3692 5.69901 78.4866 6.24822 78.4961 7.19513C78.4866 8.1231 77.3692 8.6723 75.6175 8.6723C73.8467 8.6723 72.7389 8.1231 72.7389 7.19513C72.7389 6.24822 73.8467 5.69901 75.6175 5.68955ZM75.6175 6.06831C74.1687 6.06831 73.1839 6.51335 73.1934 7.19513C73.1839 7.84849 74.1687 8.29354 75.6175 8.29354C77.0568 8.29354 78.0321 7.84849 78.0415 7.19513C78.0321 6.51335 77.0568 6.06831 75.6175 6.06831ZM78.4014 0.869785V1.58943C78.4014 2.27121 78.4014 2.91511 78.1741 3.77679L77.7385 3.71998C77.9658 2.85829 77.9658 2.2428 77.9658 1.58943V1.25802H72.7862V0.869785H78.4014ZM79.4051 4.38281V4.77104H71.8582V4.38281H75.1819V2.68785H75.6175V4.38281H79.4051ZM87.8136 5.20662V5.59485H85.6736V8.71018H85.2191V5.59485H82.814V8.71018H82.35V5.59485H80.2289V5.20662H87.8136ZM84.0071 0.784563C85.721 0.784563 86.8573 1.46634 86.8573 2.55528C86.8573 3.64422 85.721 4.326 84.0071 4.31653C82.2932 4.326 81.1474 3.64422 81.1474 2.55528C81.1474 1.46634 82.2932 0.784563 84.0071 0.784563ZM84.0071 1.16333C82.5962 1.16333 81.6019 1.73147 81.6114 2.55528C81.6019 3.37909 82.5962 3.94724 84.0071 3.94724C85.4085 3.94724 86.4027 3.37909 86.4027 2.55528C86.4027 1.73147 85.4085 1.16333 84.0071 1.16333ZM94.9533 0.415269V3.93777H96.44V4.33547H94.9533V8.71018H94.5083V0.415269H94.9533ZM93.5424 1.80722V2.20492H88.5712V1.80722H90.8627V0.491022H91.3172V1.80722H93.5424ZM91.1089 3.02873C92.2546 3.0382 93.0784 3.79573 93.0784 4.89414C93.0784 5.99256 92.2546 6.75008 91.1089 6.75008C89.9537 6.75008 89.1298 5.99256 89.1298 4.89414C89.1298 3.79573 89.9537 3.0382 91.1089 3.02873ZM91.1089 3.42644C90.2093 3.4359 89.5559 4.07033 89.5559 4.89414C89.5559 5.71795 90.2093 6.35238 91.1089 6.34291C91.999 6.35238 92.6429 5.71795 92.6523 4.89414C92.6429 4.07033 91.999 3.4359 91.1089 3.42644ZM99.328 2.94351C99.328 4.25025 100.161 5.69901 101.231 6.30504L100.947 6.64592C100.109 6.15353 99.4227 5.16875 99.1292 4.0798C98.8309 5.26344 98.116 6.30504 97.2543 6.82583L96.9418 6.48495C98.0308 5.86946 98.9019 4.39228 98.9019 2.96245V1.23908H99.328V2.94351ZM104.053 0.415269V8.71018H103.608V0.415269H104.053ZM102.339 0.623589V8.25567H101.913V3.90936H100.294V3.50219H101.913V0.623589H102.339ZM112.973 7.17619V7.57389H105.379V7.17619H107.377V4.79945C106.629 4.4491 106.174 3.85254 106.174 3.09502C106.174 1.83563 107.405 1.02129 109.147 1.02129C110.899 1.02129 112.121 1.83563 112.121 3.09502C112.121 3.84308 111.685 4.43016 110.956 4.78051V7.17619H112.973ZM109.147 1.40005C107.68 1.40005 106.591 2.10077 106.591 3.09502C106.591 4.0798 107.68 4.78051 109.147 4.78051C110.615 4.78051 111.704 4.0798 111.704 3.09502C111.704 2.10077 110.615 1.40005 109.147 1.40005ZM107.812 7.17619H110.502V4.96043C110.104 5.08352 109.649 5.14981 109.147 5.14981C108.655 5.14981 108.205 5.08352 107.812 4.96043V7.17619Z" fill="#1E1E1E"/>
<path d="M0.861084 17.1348H13.1137V18.8889H25.8512V17.1348H38.1038V29.74H4.63384C1.9982 29.74 0.861084 28.5941 0.861084 25.9672V17.1348ZM26.2479 36.8977V37.9114H38.1038V43.6675C34.3751 44.9368 29.7121 45.5538 25.3664 45.5538V46.7438C29.7121 46.7438 34.3663 46.1268 38.1038 44.8575V51.4862C32.4799 52.9759 25.3223 53.9015 15.8816 53.9015C5.3831 53.9015 0.861084 51.5303 0.861084 46.4794V44.9015C5.86792 44.9015 8.67986 44.593 13.5985 43.7115V42.5215C8.67986 43.403 5.86792 43.7115 0.861084 43.7115V37.9114H12.7171V36.8977H0.861084V30.7537H38.1038V36.8977H26.2479ZM14.2156 23.7195C17.6005 24.7772 21.5936 25.1651 24.8904 25.1651V23.8517C21.5936 23.8517 17.9972 23.3228 14.7004 22.406L14.2156 23.7195Z" fill="url(#paint0_linear_415_336)"/>
<path d="M41.2683 33.5128V17.1348H63.2702V37.2943H45.0411C42.4054 37.2943 41.2683 36.1484 41.2683 33.5216V33.5128ZM41.9647 38.5196H54.7021C54.7021 42.1249 57.0293 43.879 61.5513 44.0553C67.087 44.2316 72.3583 43.879 76.7481 42.1249V51.83C71.609 53.2316 67.4837 53.8045 60.5023 53.8045C47.4563 53.8045 40.475 50.1552 41.9735 38.5196H41.9647ZM48.426 25.694L47.853 26.9633C50.6649 27.933 53.565 28.409 56.7648 28.409V27.1396C53.7766 27.1396 51.0969 26.5667 48.4172 25.694H48.426ZM64.9362 42.6978V17.1348H76.7481V22.5823H80.0889V32.9486H76.7481V40.6792C73.6717 41.9486 68.3123 42.9182 64.9362 42.6978Z" fill="url(#paint1_linear_415_336)"/>
<path d="M81.6665 40.2385V30.2689C89.5734 29.8281 92.8173 27.5451 92.8173 21.0486V17.1348H107.662V21.0397C107.662 27.5363 111.002 29.8193 118.9 30.2601V40.2297C107.961 40.2297 103.087 39.3923 96.546 35.1347L95.0122 35.928C96.0259 36.6773 97.3393 37.3296 98.7938 37.9466C93.9191 39.3923 88.8242 40.2737 81.6665 40.2297V40.2385ZM118.909 53.1875H81.6665V43.4383H93.5225V39.9652H107.044V43.4383H118.9V53.1875H118.909Z" fill="url(#paint2_linear_415_336)"/>
<path d="M122.074 43.3942V17.1348H144.076V27.8536C141.485 28.5147 137.051 28.7792 133.886 28.7792V41.5166C136.566 41.5166 142.974 41.3403 145.742 39.6743V17.1348H157.554V28.5941H160.895V38.9603H157.554V53.1875H145.742V51.0808C143.415 52.1826 138.54 53.1434 135.993 53.1434H132.344C123.996 53.1434 122.065 49.9348 122.065 43.3942H122.074Z" fill="url(#paint3_linear_415_336)"/>
<circle cx="165.699" cy="49.7505" r="3.52594" fill="#FF6589"/>
<defs>
<linearGradient id="paint0_linear_415_336" x1="0.861084" y1="17.1348" x2="157.765" y2="50.6312" gradientUnits="userSpaceOnUse">
<stop stop-color="#FF0000"/>
<stop offset="1" stop-color="#FF6589"/>
</linearGradient>
<linearGradient id="paint1_linear_415_336" x1="1.30191" y1="17.1348" x2="157.766" y2="54.1571" gradientUnits="userSpaceOnUse">
<stop stop-color="#FF0000"/>
<stop offset="1" stop-color="#FF6589"/>
</linearGradient>
<linearGradient id="paint2_linear_415_336" x1="2.18307" y1="17.1348" x2="159.969" y2="53.2756" gradientUnits="userSpaceOnUse">
<stop stop-color="#FF0000"/>
<stop offset="1" stop-color="#FF6589"/>
</linearGradient>
<linearGradient id="paint3_linear_415_336" x1="0.861249" y1="17.1348" x2="156.443" y2="53.2757" gradientUnits="userSpaceOnUse">
<stop stop-color="#FF0000"/>
<stop offset="1" stop-color="#FF6589"/>
</linearGradient>
</defs>
</svg>
