<svg width="320" height="55" viewBox="0 0 320 55" fill="none" xmlns="http://www.w3.org/2000/svg">
<rect width="320" height="55" rx="27.5" fill="url(#paint0_linear_415_347)"/>
<path d="M145.883 21.9121V34.1621H144.584V21.9121H145.883ZM135.82 30.8262C136.825 30.8193 137.98 30.8125 139.184 30.7715V29.5547C137.748 29.3701 136.818 28.5293 136.832 27.3262C136.818 25.9453 138.021 25.0293 139.799 25.0293C141.59 25.0293 142.82 25.9453 142.82 27.3262C142.82 28.5156 141.891 29.3496 140.469 29.541V30.7305C141.604 30.6826 142.752 30.5938 143.832 30.457L143.928 31.4277C141.207 31.8789 138.24 31.9062 135.998 31.9062L135.82 30.8262ZM143.559 23.375V24.4141H136.08V23.375H139.184V21.9395H140.482V23.375H143.559ZM139.799 26.041C138.773 26.041 138.049 26.5469 138.062 27.3262C138.049 28.1055 138.773 28.584 139.799 28.584C140.852 28.584 141.576 28.1055 141.576 27.3262C141.576 26.5469 140.852 26.041 139.799 26.041ZM158.037 21.9258V31.209H156.738V30.0332H154.277V29.1172H156.738V21.9258H158.037ZM158.338 32.8496V33.9023H149.492V30.3066H150.777V32.8496H158.338ZM147.797 27.5176C150.066 27.5039 153.115 27.4766 155.727 27.1484L155.809 28.0781C154.763 28.249 153.662 28.3652 152.582 28.4336V30.8262H151.283V28.502C150.094 28.5566 148.952 28.5635 147.961 28.5566L147.797 27.5176ZM151.803 22.3906C153.594 22.3906 154.838 23.252 154.838 24.5508C154.838 25.8496 153.594 26.6836 151.803 26.6836C149.984 26.6836 148.754 25.8496 148.754 24.5508C148.754 23.252 149.984 22.3906 151.803 22.3906ZM151.803 23.3613C150.709 23.3477 149.971 23.8125 149.984 24.5508C149.971 25.2754 150.709 25.7266 151.803 25.7266C152.855 25.7266 153.594 25.2754 153.607 24.5508C153.594 23.8125 152.855 23.3477 151.803 23.3613ZM169.494 21.9121V26.793H171.395V27.873H169.494V34.1484H168.195V21.9121H169.494ZM166.295 23.1973C166.281 26.7383 164.723 29.8965 160.689 31.8926L159.965 30.8809C163.034 29.3496 164.702 27.1348 164.969 24.2773H160.58V23.1973H166.295ZM182.209 21.9121V28.4883H180.91V21.9121H182.209ZM175.469 29.0762V30.457H180.924V29.0762H182.209V34.0117H174.197V29.0762H175.469ZM175.469 32.9453H180.924V31.4824H175.469V32.9453ZM175.564 22.4727C177.438 22.4727 178.818 23.6348 178.818 25.3164C178.818 26.998 177.438 28.1602 175.564 28.1465C173.691 28.1602 172.297 26.998 172.297 25.3164C172.297 23.6348 173.691 22.4727 175.564 22.4727ZM175.564 23.5664C174.402 23.5527 173.568 24.2773 173.568 25.3164C173.568 26.3691 174.402 27.0801 175.564 27.0801C176.713 27.0801 177.547 26.3691 177.547 25.3164C177.547 24.2773 176.713 23.5527 175.564 23.5664Z" fill="white"/>
<defs>
<linearGradient id="paint0_linear_415_347" x1="-72.5" y1="8.88234e-07" x2="350" y2="49" gradientUnits="userSpaceOnUse">
<stop stop-color="#FD3A29"/>
<stop offset="1" stop-color="#FF6589"/>
</linearGradient>
</defs>
</svg>
