<svg width="139" height="42" viewBox="0 0 139 42" fill="none" xmlns="http://www.w3.org/2000/svg">
<path d="M2.38534 0.542129C3.51095 0.542129 4.349 1.2405 4.35721 2.21822C4.349 3.20415 3.51095 3.89431 2.38534 3.89431C1.25152 3.89431 0.413475 3.20415 0.413475 2.21822C0.413475 1.2405 1.25152 0.542129 2.38534 0.542129ZM2.38534 1.29801C1.76092 1.29801 1.30082 1.65131 1.30082 2.21822C1.30082 2.79335 1.76092 3.15486 2.38534 3.15486C3.00977 3.15486 3.46987 2.79335 3.46987 2.21822C3.46987 1.65131 3.00977 1.29801 2.38534 1.29801ZM6.46876 0.303861V4.05863H5.54855V0.303861H6.46876ZM6.46876 4.37906V6.31806H2.45107V6.91784H6.69059V7.64086H1.55552V5.64434H5.55677V5.09386H1.53908V4.37906H6.46876ZM10.1824 1.48698C10.1824 2.42362 10.7904 3.30275 11.9325 3.66425L11.4395 4.37906C10.6384 4.10793 10.0633 3.56566 9.74699 2.87551C9.41834 3.66425 8.81857 4.28457 7.96409 4.58446L7.47112 3.86966C8.67068 3.45064 9.26224 2.4647 9.27045 1.40482V0.698235H10.1824V1.48698ZM13.4114 0.303861V2.11141H14.4466V2.86729H13.4114V4.74878H12.4994V0.303861H13.4114ZM10.9958 4.91311C12.5323 4.90489 13.4771 5.43072 13.4853 6.30985C13.4771 7.2054 12.5323 7.72302 10.9958 7.72302C9.44299 7.72302 8.48171 7.2054 8.48171 6.30985C8.48171 5.43072 9.44299 4.90489 10.9958 4.91311ZM10.9958 5.62791C9.97704 5.62791 9.3937 5.87439 9.3937 6.30985C9.3937 6.76995 9.97704 7 10.9958 7C12.0146 7 12.5816 6.76995 12.5816 6.30985C12.5816 5.87439 12.0146 5.62791 10.9958 5.62791ZM23.5912 3.95182V4.69127H16.8211V3.95182H19.746V2.91659H20.6498V3.95182H23.5912ZM20.658 0.706451C20.658 1.61022 21.6521 2.43184 23.205 2.62902L22.8517 3.34383C21.6316 3.15486 20.6621 2.60438 20.1897 1.82384C19.7131 2.60438 18.7436 3.15486 17.5194 3.34383L17.1908 2.62902C18.719 2.43184 19.7296 1.59379 19.7296 0.706451V0.427103H20.658V0.706451ZM22.7613 5.28283V7.73123H21.8493V5.99763H17.5687V5.28283H22.7613ZM27.8718 0.418887V1.00223H31.076V0.418887H31.9798V2.89194H26.968V0.418887H27.8718ZM27.8718 2.21H31.076V1.66774H27.8718V2.21ZM32.8589 3.35204V4.09971H29.9176V4.65019H32.0127V6.44952H27.7896V6.96714H32.2181V7.66551H26.894V5.80866H31.1171V5.32391H26.8858V4.65019H29.0056V4.09971H26.0889V3.35204H32.8589ZM39.5797 0.303861V5.79223H38.6677V3.85323H37.6161V3.09734H38.6677V2.39076H37.6161V1.65131H38.6677V0.303861H39.5797ZM37.5093 0.862557V1.59379H36.852V3.96004C37.1313 3.9436 37.4025 3.92306 37.6654 3.89431L37.7065 4.55981C36.3015 4.78986 34.6501 4.81451 33.4669 4.81451L33.3683 4.05863L34.2064 4.05041V1.59379H33.5573V0.862557H37.5093ZM39.7687 6.84389V7.58334H34.6994V5.36499H35.6196V6.84389H39.7687ZM35.0937 4.0422L35.9729 4.00933V1.59379H35.0937V4.0422ZM46.4895 0.303861V2.18535H47.5247V2.94945H46.4895V4.78165H45.5775V0.303861H46.4895ZM46.4895 5.13494V7.64086H41.6913V5.13494H46.4895ZM42.595 5.85796V6.90141H45.5857V5.85796H42.595ZM45.0434 1.01866V1.7499H40.6396V1.01866H42.3896V0.254564H43.3016V1.01866H45.0434ZM42.8415 2.02103C43.9178 2.02103 44.6491 2.56329 44.6573 3.35204C44.6491 4.14901 43.9178 4.68305 42.8415 4.68305C41.757 4.68305 41.0175 4.14901 41.0175 3.35204C41.0175 2.56329 41.757 2.02103 42.8415 2.02103ZM42.8415 2.71118C42.2746 2.71118 41.9049 2.94945 41.9049 3.35204C41.9049 3.76285 42.2746 4.00112 42.8415 4.00112C43.4084 4.00112 43.7864 3.76285 43.7864 3.35204C43.7864 2.94945 43.4084 2.71118 42.8415 2.71118ZM51.2713 0.558561C52.8323 0.558561 53.769 1.00223 53.769 1.81563C53.769 2.62902 52.8323 3.08091 51.2713 3.08091C49.702 3.08091 48.7736 2.62902 48.7736 1.81563C48.7736 1.00223 49.702 0.558561 51.2713 0.558561ZM51.2713 0.87899C49.9896 0.870774 49.1679 1.2405 49.1762 1.81563C49.1679 2.40719 49.9896 2.76048 51.2713 2.76048C52.553 2.76048 53.3746 2.40719 53.3746 1.81563C53.3746 1.2405 52.553 0.870774 51.2713 0.87899ZM54.5495 3.66425V4.00112H48.0013V3.66425H54.5495ZM53.6786 4.757V6.21947H49.2255V7.18075H53.9169V7.5094H48.8475V5.89904H53.3006V5.07743H48.8229V4.757H53.6786ZM58.863 1.09261C59.7832 1.09261 60.3912 2.03746 60.3912 3.51636C60.3912 4.99527 59.7832 5.94012 58.863 5.94012C57.9428 5.94012 57.3348 4.99527 57.3348 3.51636C57.3348 2.03746 57.9428 1.09261 58.863 1.09261ZM58.863 1.4459C58.1646 1.4459 57.7045 2.30038 57.7127 3.51636C57.7045 4.72413 58.1646 5.58683 58.863 5.57861C59.5613 5.58683 60.0214 4.72413 60.0214 3.51636C60.0214 2.30038 59.5613 1.4459 58.863 1.4459ZM63.349 0.418887V7.61621H62.9628V4.8063H61.7222V7.22184H61.3442V0.599642H61.7222V2.30038H62.9628V0.418887H63.349ZM61.7222 4.453H62.9628V2.64546H61.7222V4.453ZM70.382 0.418887V7.61621H69.9958V0.418887H70.382ZM68.2622 1.21585C68.2622 3.21237 67.1695 5.05278 64.8525 6.17839L64.6389 5.84974C66.6354 4.89667 67.7569 3.33972 67.8678 1.55271H64.9347V1.21585H68.2622ZM77.2671 0.418887V3.47528H78.557V3.82036H77.2671V7.61621H76.8809V0.418887H77.2671ZM76.0429 1.62666V1.97173H71.7294V1.62666H73.7177V0.484616H74.1121V1.62666H76.0429ZM73.9313 2.68654C74.9255 2.69475 75.6403 3.35204 75.6403 4.30511C75.6403 5.25818 74.9255 5.91547 73.9313 5.91547C72.929 5.91547 72.2142 5.25818 72.2142 4.30511C72.2142 3.35204 72.929 2.69475 73.9313 2.68654ZM73.9313 3.03161C73.1508 3.03983 72.5839 3.59031 72.5839 4.30511C72.5839 5.01991 73.1508 5.57039 73.9313 5.56218C74.7036 5.57039 75.2623 5.01991 75.2706 4.30511C75.2623 3.59031 74.7036 3.03983 73.9313 3.03161ZM84.5383 0.418887V3.37669H85.8283V3.72177H84.5383V7.62443H84.1522V0.418887H84.5383ZM79.9127 5.43072C81.3258 5.43072 82.2461 5.38142 83.347 5.1678L83.4045 5.5211C82.2625 5.73472 81.3505 5.7758 79.9127 5.7758H79.3786V1.14191H82.7226V1.47877H79.7648V5.43072H79.9127ZM86.9621 7.04108C86.7731 7.04108 86.617 6.88497 86.617 6.68779C86.617 6.49882 86.7731 6.34271 86.9621 6.34271C87.1593 6.34271 87.3154 6.49882 87.3154 6.68779C87.3154 6.88497 87.1593 7.04108 86.9621 7.04108Z" fill="#1E1E1E"/>
<circle cx="134.223" cy="37.4457" r="3.81678" fill="#FF6589"/>
<path d="M0 12H9.91091V13.4186H20.2099V12H30.1208V22.1908H3.05342C0.922389 22.1908 0 21.2684 0 19.1374V12ZM20.5279 27.9796V28.7938H30.1144V33.4439C27.0928 34.4745 23.3333 34.9707 19.8155 34.9707V35.9312C23.3333 35.9312 27.0991 35.435 30.1144 34.4045V39.7671C25.5661 40.9757 19.7773 41.72 12.1437 41.72C3.65775 41.72 0 39.8052 0 35.7149V34.4363C4.05215 34.4363 6.32313 34.1882 10.2989 33.4758V32.5152C6.32313 33.2277 4.04579 33.4758 0 33.4758V28.7875H9.58648V27.9732H0V22.9987H30.1208V27.9732H20.5343L20.5279 27.9796ZM10.7951 17.3244C13.5305 18.1768 16.762 18.4949 19.4274 18.4949V17.4262C16.762 17.4262 13.8486 17 11.1895 16.2557L10.8015 17.318L10.7951 17.3244Z" fill="url(#paint0_linear_479_212)"/>
<path d="M32.6714 25.2506V12H50.4639V28.304H35.7248C33.5938 28.304 32.6714 27.3816 32.6714 25.2506ZM33.2439 29.2964H43.5428C43.5428 32.2099 45.4258 33.6284 49.0835 33.7684C53.5619 33.9083 57.8176 33.6284 61.3736 32.2035V40.0533C57.2197 41.192 53.88 41.65 48.2311 41.65C37.6841 41.65 32.0353 38.7047 33.2439 29.29V29.2964ZM38.4602 18.9275L37.9958 19.958C40.2668 20.7404 42.6141 21.1285 45.2031 21.1285V20.0979C42.7859 20.0979 40.623 19.6336 38.4538 18.9275H38.4602ZM51.8189 32.6679V12H61.3736V16.402H64.0708V24.7862H61.3736V31.0394C58.8863 32.0699 54.5543 32.8523 51.8189 32.6742V32.6679Z" fill="url(#paint1_linear_479_212)"/>
<path d="M65.3496 27.0572V12H95.4704V21.1285H76.043V22.4071H95.4704V31.5356H85.8839V33.2786H95.4704V41.1602H65.3496V33.2786H74.9424V31.5356H69.828C66.9845 31.5356 65.3496 29.9007 65.3496 27.0572Z" fill="url(#paint2_linear_479_212)"/>
<path d="M128.142 41.1602H98.021V33.7048H107.614V32.5661C100.833 32.248 98.021 29.3727 98.021 24.1819V21.2684C102.569 21.2684 106.933 20.1679 109.637 18.9593V17.7506C106.971 18.9211 102.569 20.1997 98.021 20.1997V12H128.142V22.9033C124.942 23.6475 121.036 24.1819 116.85 24.1819V25.2824C121.043 25.2824 124.948 24.7862 128.142 24.0419V31.1793C125.406 31.7836 122.175 32.1399 118.555 32.3498V33.6984H128.142V41.1538V41.1602Z" fill="url(#paint3_linear_479_212)"/>
<defs>
<linearGradient id="paint0_linear_479_212" x1="0" y1="12" x2="137.404" y2="41.8981" gradientUnits="userSpaceOnUse">
<stop stop-color="#FF4949"/>
<stop offset="1" stop-color="#FF6589"/>
</linearGradient>
<linearGradient id="paint1_linear_479_212" x1="0.317897" y1="12" x2="137.722" y2="41.8981" gradientUnits="userSpaceOnUse">
<stop stop-color="#FF4949"/>
<stop offset="1" stop-color="#FF6589"/>
</linearGradient>
<linearGradient id="paint2_linear_479_212" x1="-2.78193e-05" y1="13.2723" x2="138.04" y2="39.6717" gradientUnits="userSpaceOnUse">
<stop stop-color="#FF4949"/>
<stop offset="1" stop-color="#FF6589"/>
</linearGradient>
<linearGradient id="paint3_linear_479_212" x1="-0.318259" y1="12" x2="139.63" y2="41.262" gradientUnits="userSpaceOnUse">
<stop stop-color="#FF4949"/>
<stop offset="1" stop-color="#FF6589"/>
</linearGradient>
</defs>
</svg>
