<svg width="278" height="124" viewBox="0 0 278 124" fill="none" xmlns="http://www.w3.org/2000/svg">
<g filter="url(#filter0_d_284_279)">
<mask id="path-1-outside-1_284_279" maskUnits="userSpaceOnUse" x="11" y="11" width="250" height="97" fill="black">
<rect fill="white" x="11" y="11" width="250" height="97"/>
<path d="M231.823 13C246.93 13 259.177 25.2461 259.177 40.3525V67.7061C259.177 82.8126 246.93 95.0586 231.823 95.0586H145.716C144.645 95.0586 143.654 95.6304 143.118 96.5587L138.457 104.633C137.404 106.456 134.773 106.456 133.72 104.633L129.058 96.5587C128.523 95.6304 127.532 95.0586 126.46 95.0586H40.3525C25.2462 95.0584 13.0001 82.8124 13 67.7061V40.3525C13.0002 25.2462 25.2462 13.0002 40.3525 13H231.823Z"/>
</mask>
<path d="M231.823 13C246.93 13 259.177 25.2461 259.177 40.3525V67.7061C259.177 82.8126 246.93 95.0586 231.823 95.0586H145.716C144.645 95.0586 143.654 95.6304 143.118 96.5587L138.457 104.633C137.404 106.456 134.773 106.456 133.72 104.633L129.058 96.5587C128.523 95.6304 127.532 95.0586 126.46 95.0586H40.3525C25.2462 95.0584 13.0001 82.8124 13 67.7061V40.3525C13.0002 25.2462 25.2462 13.0002 40.3525 13H231.823Z" fill="#FFFEFE"/>
<path d="M259.177 40.3525L260.677 40.3525L260.677 40.3525L259.177 40.3525ZM259.177 67.7061L260.677 67.7061V67.7061H259.177ZM138.457 104.633L139.756 105.383L139.756 105.383L138.457 104.633ZM133.72 104.633L132.421 105.383L132.421 105.383L133.72 104.633ZM40.3525 95.0586L40.3525 96.5586H40.3525V95.0586ZM13 67.7061L11.5 67.7061L11.5 67.7061L13 67.7061ZM13 40.3525L11.5 40.3525V40.3525H13ZM40.3525 13L40.3525 11.5L40.3525 11.5L40.3525 13ZM129.058 96.5587L130.357 95.8087L129.058 96.5587ZM143.118 96.5587L144.417 97.3086L143.118 96.5587ZM231.823 13V14.5C246.101 14.5 257.677 26.0746 257.677 40.3526L259.177 40.3525L260.677 40.3525C260.677 24.4176 247.758 11.5 231.823 11.5V13ZM259.177 40.3525H257.677V67.7061H259.177H260.677V40.3525H259.177ZM259.177 67.7061L257.677 67.706C257.677 81.9841 246.101 93.5586 231.823 93.5586V95.0586V96.5586C247.758 96.5586 260.677 83.6411 260.677 67.7061L259.177 67.7061ZM231.823 95.0586V93.5586H145.716V95.0586V96.5586H231.823V95.0586ZM143.118 96.5587L141.819 95.8087L137.158 103.883L138.457 104.633L139.756 105.383L144.417 97.3086L143.118 96.5587ZM138.457 104.633L137.158 103.883C136.683 104.706 135.494 104.706 135.019 103.883L133.72 104.633L132.421 105.383C134.051 108.206 138.126 108.206 139.756 105.383L138.457 104.633ZM133.72 104.633L135.019 103.883L130.357 95.8087L129.058 96.5587L127.759 97.3086L132.421 105.383L133.72 104.633ZM126.46 95.0586V93.5586H40.3525V95.0586V96.5586H126.46V95.0586ZM40.3525 95.0586L40.3526 93.5586C26.0746 93.5584 14.5001 81.984 14.5 67.706L13 67.7061L11.5 67.7061C11.5001 83.6409 24.4178 96.5584 40.3525 96.5586L40.3525 95.0586ZM13 67.7061H14.5V40.3525H13H11.5V67.7061H13ZM13 40.3525L14.5 40.3526C14.5002 26.0747 26.0747 14.5002 40.3526 14.5L40.3525 13L40.3525 11.5C24.4178 11.5002 11.5002 24.4178 11.5 40.3525L13 40.3525ZM40.3525 13V14.5H231.823V13V11.5H40.3525V13ZM129.058 96.5587L130.357 95.8087C129.554 94.4163 128.068 93.5586 126.46 93.5586V95.0586V96.5586C126.996 96.5586 127.491 96.8445 127.759 97.3086L129.058 96.5587ZM145.716 95.0586V93.5586C144.109 93.5586 142.623 94.4163 141.819 95.8087L143.118 96.5587L144.417 97.3086C144.685 96.8445 145.181 96.5586 145.716 96.5586V95.0586Z" fill="#FF0000" mask="url(#path-1-outside-1_284_279)"/>
</g>
<defs>
<filter id="filter0_d_284_279" x="0.558823" y="0.558823" width="276.53" height="123.353" filterUnits="userSpaceOnUse" color-interpolation-filters="sRGB">
<feFlood flood-opacity="0" result="BackgroundImageFix"/>
<feColorMatrix in="SourceAlpha" type="matrix" values="0 0 0 0 0 0 0 0 0 0 0 0 0 0 0 0 0 0 127 0" result="hardAlpha"/>
<feOffset dx="2.73529" dy="2.73529"/>
<feGaussianBlur stdDeviation="6.83824"/>
<feComposite in2="hardAlpha" operator="out"/>
<feColorMatrix type="matrix" values="0 0 0 0 0.607843 0 0 0 0 0.607843 0 0 0 0 0.607843 0 0 0 0.3 0"/>
<feBlend mode="normal" in2="BackgroundImageFix" result="effect1_dropShadow_284_279"/>
<feBlend mode="normal" in="SourceGraphic" in2="effect1_dropShadow_284_279" result="shape"/>
</filter>
</defs>
</svg>
