<svg width="32" height="41" viewBox="0 0 32 41" fill="none" xmlns="http://www.w3.org/2000/svg">
<path d="M15.0197 39.3995V26.1227C15.0197 25.5816 15.4582 25.1431 15.9992 25.1431C16.5403 25.1431 16.9788 25.5816 16.9788 26.1227V39.3995C16.9788 40.4178 15.0197 40.4178 15.0197 39.3995Z" fill="#FF051C"/>
<path d="M26.9475 2C26.9475 0.895431 26.0521 0 24.9475 0H7.05266C5.94809 0 5.05266 0.895431 5.05266 2V2.36245C5.05266 3.46702 5.94809 4.36245 7.05266 4.36245H7.57898C9.2632 4.36245 9.2632 4.36245 9.2632 5.81661V16.1263C9.2632 16.9287 8.77816 17.644 8.08033 18.0402C6.21079 19.1017 4.24659 20.7802 2.61576 22.4404C1.4623 23.6147 2.34266 25.4476 3.98865 25.4476H14.3159H17.6843H27.929C29.5901 25.4476 30.4805 23.5749 29.3064 22.3999C27.8024 20.8948 25.9267 19.3025 23.8001 18.0406C23.1575 17.6593 22.7369 16.9807 22.7369 16.2335V5.81661C22.7369 4.36245 22.4001 4.36245 24.4212 4.36245H24.9475C26.0521 4.36245 26.9475 3.46702 26.9475 2.36245V2Z" fill="#FF051C"/>
</svg>
